<svg id="レイヤー_1" xmlns="http://www.w3.org/2000/svg" width="550" height="116"><style>.st1,.st2{fill:#1a1311}.st2{fill-rule:evenodd;clip-rule:evenodd}</style><g id="logo" transform="translate(-74.331 -415.375)"><g id="グループ化_42" transform="translate(195.595 438.678)"><g id="グループ化_39" transform="translate(2.773 33.077)"><path id="長方形_8" fill="#f99900" d="M0 0h44.4v44.4H0z"/><g id="グループ化_38" transform="translate(25.476 24.331)"><path id="パス_245" class="st1" d="M18.9 20.1h-6V9.2c0-3-1.1-4.6-3.3-4.6-1 0-2 .4-2.6 1.2-.7.9-1.1 2-1 3.1v11.2H0V.5h6.1v3.1h.1C7.4 1.3 9.8-.1 12.4 0c4.3 0 6.5 2.7 6.5 8.1v12z"/></g></g><g id="グループ化_40"><path id="パス_246" class="st1" d="M12.3 16.3V.9h5.4v14.5l29.9-4.9.4 5.4-30.3 5v19.8c0 1.5 1.1 1.8 2.1 1.8h16.4c3.5 0 4 0 4.8-9.4l5.5 1.6C45 45 43.9 47.8 38.3 47.8H17.8c-2.8.2-5.3-2-5.5-4.8V21.8L.8 23.6 0 18.3l12.3-2z"/><path id="パス_247" class="st1" d="M66.8 30.6c-2.2 6.7-5.6 13-10 18.5l-3.8-5c4-4.9 7.1-10.5 9.2-16.5l4.6 3zM56 14.5c3.2 1.3 6.2 3 9 5.1l-3.1 4.7c-2.6-2-5.4-3.6-8.4-5l2.5-4.8zM58.4.4c3.1 1.4 6.1 3.1 8.8 5.2L64 10.2c-2.6-2.1-5.4-3.9-8.4-5.4L58.4.4zm39.2 6h5.3v4.8H87.7v3.9h13.5V46c-.1 1.9-1.7 3.3-3.6 3.2h-7.1l-.9-5h5.3c1.4 0 1.5-.6 1.5-1.5v-5.2h-8.7v11.2h-5V37.5h-8.5v11.6h-4.9v-34h13.4v-3.9H67.8V6.4h14.9v-6h5v6h8.1c-1.7-1.1-3.4-2.1-5.2-3.1l3-3.3c2.3.9 4.5 2.1 6.5 3.6l-2.5 2.8zM74.3 19.6v4.6h8.5v-4.6h-8.5zm0 8.7v5h8.5v-5h-8.5zm13.4-8.7v4.6h8.7v-4.6h-8.7zm0 8.7v5h8.7v-5h-8.7z"/><path id="パス_248" class="st1" d="M113.2 25.7c.4 2.4 1.2 4.7 2.1 6.9.9-3 1.4-6.2 1.5-9.3h-8.4v-5.4c2.8-3.2 5.4-6.7 7.6-10.4h-7.6V2.7h13.2v4.8c-1.5 3-6.4 9.4-7.8 11.1h7.8c-.3 9.1-1.6 15.5-2.9 19 2.7 2.7 7.8 4.8 13 4.8h25.9l-1.3 5.1h-24.2c-5.3 0-12.5-3.2-15.3-5.7-1.4 2.6-3.3 5-5.6 6.9l-3.3-4.7c2.2-1.7 4-3.8 5.4-6.2-2.1-3.3-3.6-7.1-4.3-11l4.2-1.1zM141.1.5v3.1h12.7v7.5h2.9v4.2h-2.9v7.3h-12.7v3.1h13.6V30h-13.6v3.1h15.7v4.3h-15.7v3.8h-5v-3.8h-13.7v-4.3h13.7V30h-12v-4.2h12v-3.1h-10.3v-4.2h10.3v-3.1h-13.7v-4.2h13.7V8h-10.3V3.7h10.3V.5h5zm0 7.5v3.1h7.9V8h-7.9zm0 7.3v3.1h7.9v-3.1h-7.9z"/><path id="パス_249" class="st1" d="M162.8 9.4h20v4.7h-20V9.4zm1.7-7.3H181v4.7h-16.5V2.1zm0 14.8H181v4.7h-16.5v-4.7zM181 45.8v1h-11.9V49h-4.6V32.1H181v11.6c4-.8 7.8-2.3 11.3-4.4-2.9-2.5-5.2-5.6-6.8-9l4.2-1.7c1.6 3.1 3.8 5.7 6.5 7.9 2.9-2.4 5.2-5.4 6.7-8.8h-19v-5.2h24.5v5.2c-1.9 4.4-4.6 8.3-8.1 11.6 3.7 2.1 7.8 3.7 12 4.6l-2.2 5.1c-4.9-1.3-9.5-3.4-13.7-6.3-4 3.1-8.6 5.3-13.6 6.3l-1.8-3.2zm-16.5-21.5H181V29h-16.5v-4.7zm4.6 12.1v6h7.3v-6h-7.3zm12.3-20c4.9-2.7 5.3-10.2 5.3-12.1 0-.9-.1-1.6-.1-2.2h16.9v11c-.1.6.3 1.2.9 1.3h1.1c.6 0 1.1-.5 1.1-1.1.3-2.1.5-4.1.6-6.2l4.8 1c-.2 8.9-1.4 11.3-5.3 11.3h-4.6c-3.6 0-3.7-2.9-3.7-3.4V7.2h-6.8c-.8 7-2.3 10.2-6.3 13.1l-3.9-3.9z"/><path id="パス_250" class="st1" d="M243 13.5c-.9 2.3-2 4.5-3.4 6.5l-5.2-3c.4-.5 1-1.2 1.5-2h-6.3v4.3c2 3.2 4.4 6.1 7.1 8.7l-3.3 4.7c-1.5-1.8-2.8-3.7-3.8-5.8v22.2h-4.9V25c-1.3 4.7-3.4 9.1-6.1 13.1l-2.4-6.5c3.6-5 6.2-10.7 7.8-16.6h-6.7V9.9h7.5V.5h4.9v9.4h6.3V15c1.4-2.3 2.9-5 4.8-12.7l5.2.7c-.3 1.4-.7 3.2-1.4 5.3h4V.5h5.1v7.8h10.9v5.1h-10.9v7.2h12v5.2h-10.3c3.6 6.6 6.4 9.7 11.1 13.6l-2.7 5.7c-4.3-3.7-7.7-8.3-10.1-13.4V49h-5.1V31.9c-3 5-7 9.4-11.7 12.9l-3.4-4.8c5.6-3.6 10.2-8.5 13.6-14.2h-11.3v-5.2h12.8v-7.2H243z"/><path id="パス_251" class="st1" d="M314.2 8.7h5.6v5.2h-15.5c.2 3.9.8 14.5 4 22.3.3.6 2.6 6.3 4.8 6.3 1.8 0 2.6-5.4 2.9-7.8l4.8 2.7c-.7 4-2.1 11.6-6.8 11.6-3.1 0-13.8-3.6-15-35.1h-27.3V8.7h27.2c0-1.1-.2-6.9-.2-8.2h5.5c0 3.2-.1 6.2 0 8.2h9.4c-2.4-1.8-5-3.4-7.7-4.6l3.1-4c2.9 1.4 5.7 3 8.3 4.9l-3.1 3.7zm-42.7 33.2c2.8-.4 9.8-1.3 11-1.4v-15h-10.1v-5.1h24.9v5.1h-9.5v14.3c6-.9 9.1-1.5 11.1-1.9v4.9c-8.4 1.9-20.4 3.6-26.5 4.4l-.9-5.3z"/><path id="パス_252" class="st1" d="M336.5 16.6c-2.7 1.7-5.6 3.2-8.5 4.5l-3.1-5c8.3-2.9 18-9.3 22.4-15.9h6c3.8 5.9 12.1 11.7 22.4 15.7l-3.3 5.2c-2.9-1.4-5.6-2.9-8.3-4.6v2.9h-27.5v-2.8zm30.8 32.8c-.6-1.2-1.3-2.4-2.1-3.5-7.1.7-18.7 1.6-36.7 1.9l-.8-5.4c1.1 0 5.8 0 7.4-.1 2-3.9 3.7-7.9 5-12.1h-13.3v-5h46.6v5h-27c-1.8 4.2-3.8 8.6-5.5 11.9 9.7-.2 10.8-.3 21.1-.8-1.8-2.6-3.9-5.1-6.1-7.4l4.4-2.7c4.6 4.5 8.6 9.5 12 14.9l-5 3.3zM361 14.5c-4-2.9-7.6-6.1-10.8-9.8-3.1 3.7-6.7 7.1-10.7 9.8H361z"/><path id="パス_253" class="st1" d="M393.4 49h-5.3V29c-1.9 1.8-4 3.5-6.3 4.8l-2.3-5.3c6.6-3.9 11.7-9.5 14.1-15.1h-13.3v-5h7.8v-8h5.3v8.1h6.1v5.1c-1.4 3.1-3.1 6.1-5.2 8.7 2.1 2.4 4.6 4.6 7.2 6.4l-2.5 4.9c-2-1.6-3.9-3.4-5.6-5.4V49zM411 .4h5.4V15h11.1v5.5h-11.1v21.3h12.3v5.5H398v-5.5h13V20.5h-10.8V15H411V.4z"/></g><g id="グループ化_41" transform="translate(49.8 55.114)"><path id="パス_254" class="st1" d="M10.7 20.2c-.6.8-1.5 1.5-2.4 2-.9.5-2 .7-3 .7-1.4.1-2.8-.4-3.9-1.3-1.9-2.1-1.9-5.3.1-7.3 1-.8 2.8-1.4 5.4-1.8h.3c2.2-.3 3.3-.9 3.3-1.9 0-.7-.3-1.3-.8-1.7-.7-.5-1.6-.7-2.5-.6-.8-.1-1.7.2-2.4.7-.6.5-.9 1.2-.8 1.9v.1H.6v-.3c0-1.5.7-2.9 1.8-3.8 1.4-1 3.2-1.5 4.9-1.4 1.7-.1 3.4.3 4.9 1.2 1.1.9 1.7 2.2 1.7 3.6v8.1c0 .4 0 .8.2 1.2.2.2.5.3.8.3h.6v2.5c-.3.1-.6.1-.9.2-.3 0-.6.1-.9.1-.8.1-1.7-.2-2.3-.6-.4-.5-.7-1.2-.7-1.9zm-.1-6.1c-1.1.5-2.3.8-3.5.9-.6.1-1 .2-1.3.2-.7.1-1.3.4-1.8.8-.4.4-.6 1-.6 1.6 0 .7.2 1.3.7 1.7.6.4 1.3.7 2 .6 1.2 0 2.3-.3 3.2-1.1.8-.7 1.3-1.7 1.3-2.8v-1.9z"/><path id="パス_255" class="st1" d="M32.1 11.9v10.4h-3.5V11.6c.1-.8-.2-1.7-.8-2.3-.6-.6-1.4-.8-2.2-.8-1.1-.1-2.3.3-3.1 1.1-.8.9-1.2 2-1.1 3.2v9.5H18V6h3.4v2.2c.5-.8 1.3-1.5 2.2-1.9.9-.5 1.9-.7 2.8-.7 2.1 0 3.5.5 4.4 1.4.9.9 1.3 2.6 1.3 4.9z"/><path id="パス_256" class="st1" d="M45.9 20.2c-.6.8-1.5 1.5-2.4 2-.9.5-2 .7-3 .7-1.4.1-2.8-.4-3.9-1.3-1.9-2.1-1.9-5.3.1-7.3 1-.8 2.8-1.4 5.4-1.8h.3c2.2-.3 3.3-.9 3.3-1.9 0-.7-.3-1.3-.8-1.7-.8-.4-1.7-.6-2.5-.6-.9-.1-1.7.2-2.4.7-.6.5-.9 1.2-.8 1.9v.1h-3.3v-.3c-.1-1.5.6-2.9 1.8-3.9 1.4-1 3.2-1.5 4.9-1.4 1.7-.1 3.4.3 4.9 1.2 1.1.9 1.8 2.2 1.7 3.6v8.1c0 .4 0 .8.2 1.2.2.2.5.3.8.3h.6v2.5c-.3.1-.6.1-.9.2-.3 0-.6.1-.9.1-.8.1-1.6-.2-2.3-.6-.6-.4-.9-1.1-.8-1.8zm-.2-6.1c-1.1.5-2.3.8-3.5.9-.6.1-1 .2-1.3.2-.7.1-1.3.4-1.8.8-.4.4-.6 1-.6 1.6 0 .7.2 1.3.7 1.7.6.4 1.3.7 2 .6 1.2 0 2.3-.3 3.2-1.1.8-.7 1.3-1.7 1.3-2.8v-1.9z"/><path id="パス_257" class="st1" d="M53.1 6h3.5v10c-.1 1 .1 2.1.7 2.9.6.6 1.4.9 2.3.8 1.2.1 2.3-.4 3.1-1.2.8-1 1.2-2.2 1.1-3.4V6h3.5v16.4H64v-2.2c-.5.8-1.3 1.5-2.1 1.9-.9.5-1.9.7-2.9.7s-2-.1-2.9-.5c-.8-.3-1.4-.8-1.9-1.5-.3-.5-.5-1-.6-1.5-.2-.9-.2-1.9-.2-2.8L53.1 6z"/><path id="パス_258" class="st1" d="M79.8 5.6v3.6h-.9c-2-.3-3.9 1.1-4.2 3.2v9.9h-3.4V6h3.3v2.9c.4-1 1-1.8 1.9-2.4.8-.5 1.7-.8 2.7-.8h.1c.1-.1.3-.1.5-.1z"/><path id="パス_259" class="st1" d="M92.1 20.2c-.6.8-1.5 1.5-2.4 2-.9.5-2 .7-3 .7-1.4.1-2.8-.4-3.9-1.3-1.9-2.1-1.9-5.3.1-7.3 1-.8 2.8-1.4 5.4-1.8h.3c2.2-.3 3.3-.9 3.3-1.9 0-.7-.3-1.3-.8-1.7-.8-.4-1.7-.6-2.5-.6-.9-.1-1.7.2-2.4.7-.6.5-.9 1.2-.9 1.9v.1H82v-.3c-.1-1.5.6-2.9 1.8-3.9 1.4-1 3.2-1.5 4.9-1.4 1.7-.1 3.4.3 4.9 1.2 1.1.9 1.7 2.2 1.7 3.6v8.1c0 .4 0 .8.2 1.2.2.2.5.3.8.3h.6v2.5c-.3.1-.6.1-.9.2-.3 0-.6.1-.9.1-.8.1-1.7-.2-2.3-.6-.5-.4-.8-1.1-.7-1.8zm-.2-6.1c-1.1.5-2.3.8-3.5.9-.6.1-1 .2-1.3.2-.7.1-1.3.4-1.8.8-.4.4-.6 1-.6 1.6 0 .7.2 1.3.7 1.7.6.4 1.3.7 2 .6 1.2 0 2.3-.3 3.2-1.1.8-.7 1.3-1.7 1.3-2.8v-1.9z"/><path id="パス_260" class="st1" d="M121.8 11.6h-3.4c0-.9-.4-1.7-1.1-2.3-1.7-1.3-4.2-1.1-5.5.6-1.4 2.7-1.4 5.8 0 8.5.7 1 1.8 1.5 3 1.4.9 0 1.8-.3 2.5-.9.7-.7 1.1-1.6 1.2-2.6h3.4c-.1 1.8-.9 3.5-2.2 4.8-1.5 1.2-3.3 1.8-5.2 1.7-2 .1-4-.8-5.3-2.3-1.4-1.8-2.1-4.1-2-6.3-.1-2.3.6-4.6 2-6.4 1.4-1.6 3.5-2.4 5.6-2.3 1.8-.1 3.6.5 5 1.6 1.3 1.1 2 2.7 2 4.5z"/><path id="パス_261" class="st1" d="M131.9 5.4c2.2-.1 4.4.7 5.9 2.3 2.9 3.8 2.9 9 0 12.8-3.3 3.1-8.5 3.1-11.8 0-2.8-3.8-2.8-9 0-12.8 1.5-1.5 3.7-2.4 5.9-2.3zm0 3c-1.3-.1-2.5.5-3.3 1.5-1.6 2.6-1.6 5.9 0 8.5.8 1 2.1 1.5 3.3 1.5 1.3.1 2.5-.5 3.3-1.5.8-1.2 1.3-2.7 1.2-4.2.1-1.5-.3-3-1.2-4.3-.8-1-2-1.6-3.3-1.5z"/><path id="パス_262" class="st1" d="M157.2 11.9v10.4h-3.5V11.6c.1-.8-.2-1.6-.8-2.3-.6-.6-1.4-.8-2.2-.8-1.1-.1-2.2.3-3.1 1.1-.8.9-1.2 2-1.1 3.2v9.5H143V6h3.4v2.2c.5-.8 1.3-1.5 2.2-1.9.9-.5 1.9-.7 2.8-.7 2.1 0 3.5.5 4.4 1.4s1.4 2.6 1.4 4.9z"/><path id="パス_263" class="st1" d="M173.7 10.7h-3.4c0-.7-.4-1.4-1-1.8-.7-.5-1.6-.7-2.5-.6-.7 0-1.4.1-2 .5-.5.3-.8.8-.8 1.3s.2 1 .6 1.3c.7.4 1.4.7 2.2.8l2.1.5c1.5.2 2.9.8 4.1 1.8.8.8 1.2 1.9 1.1 3.1.1 1.6-.6 3.1-1.9 4-1.5 1-3.4 1.6-5.2 1.4-1.8.1-3.7-.4-5.1-1.5-1.2-1.1-1.9-2.7-1.8-4.3h3.4c0 .9.4 1.7 1.1 2.2.8.5 1.8.8 2.8.7.8 0 1.7-.2 2.4-.6.6-.3.9-.9.9-1.6 0-.5-.2-.9-.5-1.2-.6-.4-1.3-.7-2-.8l-2.5-.6c-1.4-.3-2.8-.9-3.9-1.8-.8-.8-1.2-1.8-1.1-2.9-.1-1.4.6-2.8 1.7-3.7 1.4-1 3-1.5 4.7-1.4 1.7-.1 3.5.4 4.9 1.4 1 .9 1.7 2.3 1.7 3.8z"/><path id="パス_264" class="st1" d="M177.7 1.5h3.4V6h2.7v2.6h-2.7v9.6c0 .4.1.8.3 1.2.3.2.7.3 1.1.3h1.4v2.8h-.3c-1 .1-1.7.2-2.1.2-1 .1-2.1-.2-2.9-.9-.7-.9-1-2-.8-3.1V8.6h-2.3V6h2.3l-.1-4.5z"/><path id="パス_265" class="st1" d="M195 5.6v3.6h-.9c-2-.3-3.9 1.1-4.2 3.2v9.9h-3.4V6h3.3v2.9c.4-1 1-1.8 1.8-2.4.8-.5 1.7-.8 2.7-.8h.1c.2-.1.4-.1.6-.1z"/><path id="パス_266" class="st1" d="M197.4 6h3.5v10c-.1 1 .1 2.1.7 2.9.6.6 1.4.9 2.3.8 1.2.1 2.3-.4 3.1-1.2.8-1 1.2-2.2 1.1-3.4V6h3.5v16.4h-3.3v-2.2c-.5.8-1.3 1.5-2.1 1.9-.9.5-1.9.7-2.9.7s-2-.1-2.9-.5c-.8-.3-1.4-.8-1.9-1.5-.3-.5-.5-1-.6-1.5-.2-.9-.2-1.9-.2-2.8L197.4 6z"/><path id="パス_267" class="st1" d="M229.4 11.6H226c0-.9-.4-1.7-1.1-2.3-1.7-1.3-4.2-1.1-5.5.6-.8 1.3-1.1 2.8-1 4.3-.1 1.5.3 2.9 1 4.2.7 1 1.8 1.5 3 1.4.9 0 1.8-.3 2.5-.9.7-.7 1.1-1.6 1.2-2.6h3.4c-.1 1.8-.9 3.5-2.2 4.8-1.5 1.2-3.3 1.8-5.2 1.7-2 .1-4-.8-5.3-2.3-2.6-3.9-2.6-8.9.1-12.8 1.4-1.6 3.5-2.4 5.6-2.3 1.8-.1 3.6.5 5 1.6 1.1 1.2 1.8 2.8 1.9 4.6z"/><path id="パス_268" class="st1" d="M232.7 1.5h3.4V6h2.7v2.6h-2.7v9.6c-.1.4.1.8.3 1.2.3.2.7.3 1.1.3h1.4v2.8h-.4c-1 .1-1.7.2-2.1.2-1 .1-2.1-.2-2.9-.9-.7-.9-1-2-.8-3.1V8.6h-2.3V6h2.3V1.5z"/><path id="パス_269" class="st1" d="M241.5 0h3.5v3.5h-3.5V0zm0 6h3.5v16.4h-3.5V6z"/><path id="パス_270" class="st1" d="M256.2 5.4c2.2-.1 4.4.7 5.9 2.3 2.9 3.8 2.9 9 0 12.8-3.3 3.1-8.5 3.1-11.8 0-2.8-3.8-2.8-9 0-12.8 1.6-1.5 3.7-2.4 5.9-2.3zm0 3c-1.3-.1-2.5.5-3.3 1.5-1.6 2.6-1.6 5.9 0 8.5 1.7 1.8 4.5 2 6.4.3l.3-.3c.8-1.2 1.3-2.7 1.2-4.2.1-1.5-.3-3-1.2-4.3-.8-1-2.1-1.6-3.4-1.5z"/><path id="パス_271" class="st1" d="M281.6 11.9v10.4h-3.5V11.6c.1-.8-.2-1.6-.8-2.3-.6-.6-1.4-.8-2.2-.8-1.1-.1-2.2.3-3.1 1.1-.8.9-1.2 2-1.1 3.2v9.5h-3.5V6h3.4v2.2c.6-.8 1.3-1.5 2.2-1.9.9-.5 1.9-.7 2.8-.7 2.1 0 3.5.5 4.4 1.4s1.4 2.6 1.4 4.9z"/><path id="パス_272" class="st1" d="M307.9 11.6h-3.4c0-.9-.4-1.7-1.1-2.3-1.7-1.3-4.2-1.1-5.5.6-.8 1.3-1.1 2.8-1 4.3-.1 1.5.3 2.9 1 4.2.7 1 1.8 1.5 3 1.4.9 0 1.8-.3 2.5-.9.7-.7 1.1-1.6 1.2-2.6h3.4c-.1 1.8-.9 3.5-2.2 4.8-1.5 1.2-3.3 1.8-5.2 1.7-2 .1-4-.8-5.3-2.3-1.4-1.8-2.1-4.1-2-6.3-.1-2.3.6-4.6 2-6.4 1.4-1.6 3.5-2.4 5.6-2.3 1.8-.1 3.6.5 5 1.6 1.3 1.1 2 2.7 2 4.5z"/><path id="パス_273" class="st1" d="M318 5.4c2.2-.1 4.4.7 5.9 2.3 2.9 3.8 2.9 9 0 12.8-3.3 3.1-8.5 3.1-11.8 0-2.8-3.8-2.8-9 0-12.8 1.5-1.5 3.7-2.4 5.9-2.3zm0 3c-1.3-.1-2.5.5-3.3 1.5-1.6 2.6-1.6 5.9 0 8.5 1.7 1.8 4.5 2 6.4.3l.3-.3c.8-1.2 1.2-2.7 1.2-4.2.1-1.5-.3-3-1.2-4.3-.9-1-2.1-1.6-3.4-1.5z"/><path id="パス_274" class="st1" d="M329.7 18.4h3.8v3.9h-3.8v-3.9z"/><path id="パス_275" class="st1" d="M338.3 18.5h3.8v4c0 1.1-.3 2.2-1 3.1-.7.9-1.7 1.4-2.8 1.6v-1.6c.6-.1 1.1-.5 1.4-.9.4-.5.6-1.2.5-1.8v-.5h-1.9v-3.9z"/><path id="パス_276" class="st1" d="M346.6 0h3.5v22.3h-3.5V0z"/><path id="パス_277" class="st1" d="M354.6 1.5h3.4V6h2.7v2.6H358v9.6c-.1.4.1.8.3 1.2.3.2.7.3 1.1.3h1.4v2.8h-.3c-1 .1-1.7.2-2.1.2-1 .1-2.1-.2-2.9-.9-.7-.9-1-2-.8-3.1V8.6h-2.3V6h2.3l-.1-4.5z"/><path id="パス_278" class="st1" d="M374.6 0h3.4v22.3h-3.3v-2.1c-.6.8-1.4 1.5-2.3 2-.9.4-1.8.7-2.8.6-2 .1-3.9-.8-5.1-2.4-1.4-1.8-2.1-4-1.9-6.3-.1-2.3.6-4.5 1.9-6.4 1.2-1.6 3.1-2.5 5-2.4 1 0 2 .2 2.9.6.9.4 1.6 1.1 2.2 1.9V0zm-4.2 8.5c-1.2-.1-2.4.5-3.2 1.5-.8 1.3-1.2 2.8-1.1 4.3-.1 1.4.3 2.9 1.1 4.1 1.5 1.8 4.2 2 5.9.5.2-.1.3-.3.5-.5.8-1.3 1.2-2.8 1.1-4.3.1-1.5-.3-2.9-1.1-4.1-.8-1.1-2-1.6-3.2-1.5z"/></g></g><g id="グループ化_44" transform="translate(74.331 415.375)"><path id="パス_279" class="st2" d="M44.9 114.7C16 110.3-3.8 83.4.5 54.6 4.9 25.8 31.8 5.9 60.6 10.3c13.9 2.1 26.3 9.6 34.6 20.9C112.5 54.7 107.5 87.7 84 105c-6.9 5.1-14.9 8.4-23.4 9.7-.5.1-1-.1-1.4-.4-.8-.6-1-1.8-.4-2.6.2-.3.6-.6 1-.7 24.7-3.9 41.5-27.2 37.5-51.8-3.9-24.7-27.2-41.5-51.8-37.5C33.7 23.6 23 30.1 16 39.8 1.5 60.1 6 88.4 26.2 103c5.7 4.2 12.4 6.9 19.4 8 .5.1.9.4 1.1.9.5.9.2 2-.7 2.5-.3.3-.7.3-1.1.3"/><path id="パス_280" class="st2" d="M38.1 36.5c.4.1.9-.1 1.2-.3l13.4-15 13.4 15c.1.1.2.1.3.2.8.4 1.8.1 2.3-.7.2-.4.2-.9.1-1.3L55.3 1.6C55 1 54.6.6 54 .3c-1.4-.7-3-.1-3.7 1.3L36.8 34.3c0 .1-.1.2-.1.3 0 .4.1.9.3 1.2.3.4.7.6 1.1.7z"/><path id="パス_281" class="st2" d="M20.8 70.3h63.9L78.6 56H26.9l-6.1 14.3zm12.8-8.6h38.3l1.3 2.9H32.4l1.2-2.9z"/><path id="パス_282" class="st2" d="M13.3 72.4c1 6.3 3.5 12.3 7.3 17.5 13 17.8 38 21.6 55.8 8.6 8.5-6.3 14.2-15.7 15.8-26.1H13.3zm35.3 25.7c-6.4-.8-12.4-3.6-17.3-7.9h17.3v7.9zm0-12.8H26.9c-1.8-2.4-3.2-5.1-4.3-8h25.9v8zm8.3 12.8v-7.9h17.3c-4.9 4.3-10.9 7.1-17.3 7.9zm21.7-12.8H56.9v-8h25.9c-1 2.9-2.4 5.5-4.2 8z"/><path id="パス_283" class="st2" d="M30 48l-2.1 5h49.9l-2.1-5H30z"/><g id="グループ化_43" transform="translate(16.645 32.347)"><path id="パス_284" class="st1" d="M12.6 12.2h47.1c2.4 2.6 4.4 5.6 5.9 8.9l6.7-3.9C70.5 13.3 68 9.7 65 6.6H40.2V0h-8.1v6.5H7.3c-3 3.1-5.4 6.7-7.3 10.6L6.7 21c1.5-3.2 3.5-6.2 5.9-8.8z"/></g></g></g></svg>