<?xml version="1.0" encoding="utf-8"?>
<!-- Generator: Adobe Illustrator 24.0.1, SVG Export Plug-In . SVG Version: 6.00 Build 0)  -->
<svg version="1.1" id="レイヤー_1" xmlns="http://www.w3.org/2000/svg" xmlns:xlink="http://www.w3.org/1999/xlink" x="0px"
	 y="0px" viewBox="0 0 341.4 181.7" style="enable-background:new 0 0 341.4 181.7;" xml:space="preserve">
<style type="text/css">
	.st0{fill:#FFFFFF;}
</style>
<title>logo_np2019</title>
<g>
	<g>
		<g>
			<g>
				<g>
					<path class="st0" d="M169.1,137.5c0,4.8,0.1,5.4,3,5.7l1.2,0.1c0.3,0.2,0.2,1-0.1,1.1c-2.6-0.1-4.1-0.1-5.9-0.1
						c-1.9,0-3.6,0-5.6,0.1c-0.3-0.1-0.4-0.9-0.1-1.1l1-0.1c2.6-0.4,2.7-0.9,2.7-5.7v-16.8c0-3.9-0.1-4.7-2.1-4.9l-1.6-0.2
						c-0.3-0.3-0.3-1,0.1-1.1c2.4-0.3,5.2-0.4,9-0.4c3.8,0,6.6,0.5,8.8,1.8c2.1,1.3,3.7,3.7,3.7,6.8c0,4.2-2.6,6.3-4.6,7.3
						c-2,1-4.4,1.4-6.3,1.4c-0.3-0.1-0.3-0.8,0-0.9c4.9-0.9,6.7-3.7,6.7-7.7c0-4.4-2.6-7.3-7.3-7.3c-2.4,0-2.5,0.2-2.5,1.6V137.5z"
						/>
					<path class="st0" d="M192.1,131.2c0-1.8,0-2-1.2-2.8l-0.4-0.3c-0.2-0.2-0.2-0.7,0-0.8c1-0.4,3.5-1.6,4.6-2.2
						c0.2,0,0.4,0.1,0.4,0.3v2.6c0,0.2,0,0.4,0.1,0.4c1.6-1.3,3.3-2.7,5-2.7c1.1,0,2.1,0.7,2.1,1.8c0,1.5-1.2,2.1-2,2.1
						c-0.5,0-0.7-0.1-1-0.3c-0.7-0.5-1.4-0.7-2-0.7c-0.7,0-1.3,0.4-1.6,0.9c-0.5,0.6-0.6,2-0.6,3.5v6.2c0,3.3,0.1,3.8,1.8,4l1.6,0.1
						c0.3,0.2,0.2,1-0.1,1.1c-2.1-0.1-3.5-0.1-5.1-0.1c-1.6,0-3,0-4.2,0.1c-0.3-0.1-0.4-0.9-0.1-1.1l0.9-0.1c1.7-0.3,1.7-0.7,1.7-4
						V131.2z"/>
					<path class="st0" d="M226.9,135.2c0,5.7-3.9,9.8-9.6,9.8c-5.2,0-9.4-3.7-9.4-9.4c0-5.8,4.3-9.9,9.7-9.9
						C222.7,125.7,226.9,129.5,226.9,135.2z M217.1,127.1c-3,0-5.2,2.9-5.2,7.9c0,4.2,1.9,8.6,5.9,8.6s5.2-4.2,5.2-7.7
						C223,132,221.4,127.1,217.1,127.1z"/>
					<path class="st0" d="M251.8,137.7c0,3.6,0,5.3,1.3,5.3c0.5,0,1.3-0.2,2-0.5c0.3,0.1,0.4,1.2,0,1.5c-1.9,0.3-4.7,1-6,1.5
						c-0.3,0-0.5-0.1-0.5-0.4v-0.8c0-0.7,0-1.2-0.1-1.4h-0.2c-2,1.4-3.6,2.1-5.8,2.1c-5.1,0-8.4-4-8.4-8.8c0-6.4,4.8-10.5,11-10.5
						c1.6,0,2.6,0.2,3.1,0.4c0.2,0,0.3-0.3,0.3-0.6v-6.9c0-2.7,0-3-1.4-3.8l-0.5-0.3c-0.2-0.1-0.2-0.8,0-0.9c1.1-0.4,3.3-1,4.9-1.9
						c0.2,0,0.4,0.1,0.5,0.3c0,1.4-0.1,3.7-0.1,5.7V137.7z M248.4,130.8c0-0.9-0.2-1.3-0.5-1.8c-0.7-1-2.1-1.9-3.8-1.9
						c-4.2,0-6.3,3.6-6.3,7.6c0,4.2,2.3,8.1,6.8,8.1c1.2,0,2.8-0.5,3.5-1.3c0.3-0.3,0.3-1,0.3-1.7V130.8z"/>
					<path class="st0" d="M266.1,137.6c0,3.1,0.8,5.2,4.2,5.2c1.2,0,2.7-0.5,3.7-1.4c0.6-0.5,0.9-1.2,0.9-2.6v-7.5
						c0-3-0.3-3.1-1.7-3.6l-0.6-0.2c-0.3-0.2-0.3-0.8,0-1c1.8,0,4.3-0.4,5.3-0.8c0.2,0,0.4,0.1,0.4,0.3c-0.1,0.9-0.1,2.3-0.1,4v7.7
						c0,3.6,0.1,5,1.4,5c0.5,0,1.1-0.1,1.8-0.2c0.3,0.2,0.3,1.1,0,1.3c-1.8,0.4-4.4,0.8-6,1.7c-0.2,0-0.5-0.1-0.5-0.3v-1.9
						c0-0.4-0.1-0.6-0.4-0.6c-1.4,0.9-3.6,2.4-6.3,2.4c-4,0-5.5-2-5.5-5.7v-7.6c0-2.9,0-3.3-1.4-3.9l-0.5-0.2
						c-0.3-0.2-0.2-0.9,0.1-1c2.1,0,3.9-0.5,4.9-0.8c0.3,0,0.4,0.1,0.5,0.3c-0.1,0.8-0.1,1.7-0.1,4V137.6z"/>
					<path class="st0" d="M302.4,126.5c0.4,0.3,0.7,1,0.7,1.8c0,0.8-0.5,1.7-1,1.7c-0.2,0-0.5-0.1-0.6-0.3c-1-1.2-2.7-2.4-4.6-2.4
						c-3.2,0-6.3,2.5-6.3,7.3c0,3.6,2.5,7.8,7.3,7.8c2.6,0,4-1.2,5.1-2.7c0.4-0.1,0.8,0.2,0.8,0.6c-1.6,3.4-5,4.7-7.6,4.7
						c-2.4,0-4.7-0.8-6.3-2.3c-1.6-1.6-2.6-3.8-2.6-6.8c0-4.9,3.5-10.2,11-10.2C299.4,125.7,301.2,125.9,302.4,126.5z"/>
					<path class="st0" d="M316.5,128.3c-0.8,0-0.8,0.1-0.8,1.1v8.5c0,2.6,0.3,5.1,3.3,5.1c0.5,0,0.9-0.1,1.2-0.2
						c0.4-0.1,1-0.6,1.1-0.6c0.4,0,0.5,0.5,0.5,0.8c-0.8,1-2.5,2.1-4.8,2.1c-3.9,0-4.7-2.2-4.7-4.9v-10.5c0-1.2,0-1.3-1-1.3h-1.3
						c-0.3-0.2-0.3-0.7-0.1-1c1.3-0.4,2.5-1,2.9-1.4c0.6-0.5,1.5-1.8,1.9-2.7c0.2-0.1,0.8-0.1,1,0.2v2.1c0,0.8,0,0.9,0.8,0.9h5.1
						c0.5,0.4,0.5,1.6,0,1.9H316.5z"/>
					<path class="st0" d="M339.4,126.5c0.4,1,0.7,2.5,0.7,3.7c-0.2,0.3-0.9,0.4-1.1,0.1c-0.8-2-2.1-3.3-4-3.3
						c-1.8,0-2.9,1.1-2.9,2.8c0,1.9,1.9,2.9,3.5,3.8c2.4,1.4,4.7,2.9,4.7,6.2c0,3.5-3.2,5.2-6.6,5.2c-2.1,0-3.7-0.5-4.9-1.4
						c-0.4-0.9-0.6-3.1-0.5-4.6c0.2-0.3,0.8-0.3,1,0c0.8,2.5,2.2,4.7,4.8,4.7c1.6,0,3.1-1,3.1-2.9c0-2.1-1.8-3.2-3.5-4.2
						c-2.6-1.5-4.5-3.1-4.5-5.6c0-3.3,2.7-5.2,6.2-5.2C337.3,125.7,339,126.2,339.4,126.5z"/>
					<path class="st0" d="M297,179.4c1,0,1.7-0.1,2.1-0.5c0.4-0.4,0.6-0.7,0.7-0.9c0.2-0.1,0.4,0,0.5,0.1c-0.3,1.1-0.7,2.3-1,2.8
						c-0.9,0-1.9-0.1-2.9-0.1h-3.3c-1.3,0-2,0-2.5,0.1c0,0-0.2-0.1-0.2-0.3c0-0.1,0.1-0.2,0.3-0.3c1-0.7,1.8-1.5,3.5-3.3
						c1.5-1.6,3.3-3.8,3.3-6.3c0-2.1-1-3.3-2.9-3.3c-1.4,0-2.3,0.9-3,2.3c-0.2,0.1-0.5,0-0.5-0.3c0.7-2,2.5-3.2,4.6-3.2
						c2.3,0,3.8,1.5,3.8,3.7c0,1.4-0.7,3-2.4,5l-1.4,1.6c-1.9,2.1-2.1,2.5-2.1,2.6c0,0.2,0.1,0.2,0.7,0.2H297z"/>
					<path class="st0" d="M313.8,173.7c0,3.6-1.4,7.5-4.7,7.5s-4.7-3.9-4.7-7.5c0-3.4,1.4-7.5,4.7-7.5S313.8,170.3,313.8,173.7z
						 M306.4,173.7c0,2.1,0.2,6.8,2.7,6.8s2.7-4.6,2.7-6.8s-0.2-6.8-2.7-6.8S306.4,171.6,306.4,173.7z"/>
					<path class="st0" d="M323.8,179.4c1,0,1.7-0.1,2.1-0.5c0.4-0.4,0.6-0.7,0.7-0.9c0.2-0.1,0.4,0,0.5,0.1c-0.3,1.1-0.7,2.3-1,2.8
						c-0.9,0-1.9-0.1-2.9-0.1h-3.3c-1.3,0-2,0-2.5,0.1c0,0-0.2-0.1-0.2-0.3c0-0.1,0.1-0.2,0.3-0.3c1-0.7,1.8-1.5,3.5-3.3
						c1.5-1.6,3.3-3.8,3.3-6.3c0-2.1-1-3.3-2.9-3.3c-1.4,0-2.3,0.9-3,2.3c-0.2,0.1-0.5,0-0.5-0.3c0.7-2,2.5-3.2,4.6-3.2
						c2.3,0,3.8,1.5,3.8,3.7c0,1.4-0.7,3-2.4,5l-1.4,1.6c-1.9,2.1-2.1,2.5-2.1,2.6c0,0.2,0.1,0.2,0.7,0.2H323.8z"/>
					<path class="st0" d="M340.5,173.7c0,3.6-1.4,7.5-4.7,7.5s-4.7-3.9-4.7-7.5c0-3.4,1.4-7.5,4.7-7.5S340.5,170.3,340.5,173.7z
						 M333.1,173.7c0,2.1,0.2,6.8,2.7,6.8s2.7-4.6,2.7-6.8s-0.2-6.8-2.7-6.8S333.1,171.6,333.1,173.7z"/>
				</g>
			</g>
		</g>
	</g>
	<g>
		<g>
			<path class="st0" d="M179,69.4c0,0-4.2,2.4-9.3,5.4c-1.7,1-4.2,2.3-5.7,3.3c-0.9,0.6-2.8,1.5-4.2,2.4c-6.2,4-15.1,9.8-15.1,9.8
				c-4.5,3.4-9.1,7-13.7,10.8c-4.6,3.8-9.7,6.6-15.3,8.6c-3.7,1.2-6.6,1.4-8.7,0.6c-2.1-0.8-3.7-2.3-4.7-4.3c-1-2.1-1.6-4.6-1.6-7.5
				c-0.1-3,0.1-6,0.5-9.1c0.4-3.1,0.9-6,1.6-8.8c0.7-2.8,1.3-5,1.7-6.7c3.1-9.8,6.7-19.5,10.9-29.2c4.1-9.7,8.7-19.2,13.8-28.6
				c-1.5,0.9-3,1.9-4.5,3.1c-1.5,1.2-2.9,2.3-4.3,3.3c-3.4,2.6-6.7,5.3-10,8c-3.2,2.8-6.4,5.7-9.4,8.8c-5.6,5.5-11,11.2-16.3,17.2
				c-5.2,6-10.3,12.1-15.2,18.2c-5.3,6.3-10.3,12.7-14.9,19.1c-4.6,6.5-9.1,13.1-13.4,19.9c-2.3,3.3-4.4,6.7-6.3,10.1
				c-2,3.4-3.9,7-5.8,10.6c-0.7,1.2-1.4,2.7-2.1,4.6c-0.6,1.9-1.7,3.2-3.1,4c-1.4,0.7-2.8,0.5-4.1-0.6c-1.3-1.1-1.7-2.5-1.2-4
				c0.4-1.5,1.1-3.1,2.1-4.7c1-1.6,1.8-3.2,2.5-4.6c0.4-0.9,0.8-2,1.3-3.2c0.5-1.2,1.3-3,2.4-5.4c1.1-2.4,2.6-5.7,4.6-9.8
				c1.9-4.1,4.5-9.6,7.7-16.6l9.6-21.3c2.6-6.1,5.4-12.2,8.2-18.2c2.8-6,5.4-12.1,7.9-18.4c0.5-1.1,1.3-3,2.4-5.7
				c1.1-2.7,2.1-5.6,2.9-8.5c0.8-3,1.3-5.8,1.4-8.4c0.1-2.6-0.7-4.4-2.3-5.4c-1-0.5-2.1-0.7-3.3-0.7c-1.3,0.1-2.6,0.3-4,0.8
				c-1.4,0.4-2.7,1-4,1.6c-1.3,0.6-2.3,1.1-3.1,1.4c-5.6,2.8-10.9,6.2-15.9,10.1c-4.6,3.6-8.8,7.5-12.7,11.7
				c-3.8,4.2-7.5,8.7-11.1,13.3l-5.3,7.1c-0.6,1-1.3,2.1-2,3.4c-0.7,1.3-1.6,2.2-2.6,2.7c-1.8,0.7-3.3,0.3-4.4-1.3
				C-0.3,57.1-0.2,55.5,1,54c6.8-8,13.8-15.9,21-23.6c7.2-7.7,15.2-14.6,23.9-20.8c1.6-1.2,3.4-2.5,5.6-3.8c2.1-1.3,4.3-2.4,6.6-3.4
				c2.3-0.9,4.6-1.5,7-1.8c2.3-0.3,4.6,0,6.8,0.8c2.4,1,4,2.5,5,4.4c1,1.9,1.5,4,1.5,6.4c0,2.3-0.2,4.7-0.8,7.2
				c-0.5,2.5-1.1,4.6-1.7,6.4c-1.6,4.5-3.5,8.9-5.7,13.2c-2.2,4.3-4.4,8.6-6.5,12.9c-2.2,4.9-4.4,9.8-6.6,14.8
				c-2.2,5-4.4,9.9-6.5,15l-9.9,22.2c3.8-5.2,7.7-10.4,11.6-15.4c3.9-5,7.8-10.1,11.8-15.1C72.3,63.1,81,52.9,90,42.8
				c9-10.1,18.8-19.2,29.4-27.5c2.2-1.8,4.4-3.4,6.7-5c2.3-1.6,4.8-2.8,7.4-3.6c1.1-0.4,2.1-0.6,3.2-0.6c1.1,0,2,0.1,2.8,0.5
				c0.8,0.3,1.3,0.9,1.5,1.7c0.2,0.8,0.1,1.9-0.5,3.3c-0.9,2.2-2.2,4.3-3.9,6.4c-1.7,2.1-3.2,4.3-4.5,6.5
				c-4.7,8.4-9.1,16.9-13.2,25.5c-4.1,8.6-7.2,17.4-9.4,26.4c-0.4,1.9-1,4.3-1.6,7c-0.6,2.7-1.1,5.4-1.3,8.1
				c-0.3,2.7-0.2,5.1,0.1,7.2c0.3,2.1,1.2,3.7,2.5,4.7c1.5,1,3.3,1.1,5.3,0.5c2.1-0.6,4.2-1.5,6.3-2.9c2.1-1.3,4.2-2.7,6.3-4.3
				c2.1-1.5,3.8-2.7,5.2-3.6c4.3-3,8-5.7,13.5-9.3c0,0,3.1-2,6-3.9c1.9-1.3,4-2.7,5.9-3.9c2.4-1.4,6.5-3.7,10.4-6
				c4.9-2.9,9.3-5.7,9.4-5.7"/>
			<path class="st0" d="M173.3,61.5c1.1-3.5,3-6.6,5.9-9.3c2.8-2.7,6-4.8,9.5-6.2c1.8-0.7,4-1.2,6.6-1.4c2.6-0.3,4.7,0.3,6.5,1.8
				c1.2,0.9,1.7,2,1.5,3.3c-0.2,1.3-0.8,2.7-1.7,4c-0.9,1.3-2,2.6-3.2,3.8c-1.2,1.2-2.1,2.1-2.7,2.6c-2.1,2-4.6,3.7-7.3,5.1
				c-2.8,1.4-9.1,3.6-8.9,4c1.2,2.2,2.7,3.9,4.6,4.9c2.3,1.2,4.8,1.9,7.5,2.1c2.7,0.2,5.5-0.1,8.2-0.8c2.8-0.7,5.2-1.6,7.5-2.5
				c3.1-1.4,6.1-2.9,9-4.6c2.9-1.7,5.7-3.5,8.4-5.6c1.2-1,2.5-1.9,3.7-2.8c1.3-0.9,2.5-1.9,3.5-2.8c0.9-0.5,1.9-0.6,3-0.2
				c1.1,0.3,1.4,1.2,0.9,2.6c-0.4,1.2-1.2,2.2-2.4,2.9c-1.1,0.7-2.1,1.3-3,1.9l-9.2,6.7c-5.7,3.8-11.4,7.2-17.2,10.1
				c-2.6,1.1-5.3,1.9-8.1,2.3c-2.8,0.4-5.5,0.4-8.1-0.1c-2.6-0.5-5-1.5-7.4-3c-2.3-1.5-4.2-3.6-5.7-6.4c-0.5-1-1.1-2-1.4-3.1
				C172.1,66.1,173.3,61.5,173.3,61.5z M178.6,63.6c3.2-0.8,6.5-3.3,9.2-5.4c2.7-2.2,5-4.6,6.8-7.5c-2-0.3-4-0.1-5.7,0.6
				c-1.8,0.7-3.4,1.6-4.7,2.7c-1.4,1.2-2.5,2.5-3.5,4.1C179.7,59.6,178.8,62.1,178.6,63.6z"/>
			<path class="st0" d="M232.2,56.7c2.3-1.6,4.6-3.3,6.9-5c2.3-1.7,4.6-3.4,7.1-5.1c2.3-1.6,4.8-3.3,7.5-4.8
				c2.6-1.6,4.9-3.5,6.8-5.8c0.9-1,2.2-1.8,4-2.4c1.7-0.5,3.1,0.1,4,1.9c0.7,1.7,0.3,3.4-1.1,5c-1.4,1.7-2.6,3.1-3.4,4.3
				c-1.3,1.9-2.6,3.8-3.8,5.8c-1.3,2.1-2.4,4.2-3.3,6.4c-0.3,1.1-0.9,2.6-1.7,4.5c-0.8,1.9-1.1,3.7-1.1,5.2
				c5.1-1.4,9.8-4.1,14.2-8.2c4.4-4.1,7.9-8.5,10.6-13.2c0.2-1,0.5-2.2,0.9-3.4c0.4-1.2,0.9-2.4,1.4-3.6c0.6-1.2,1.3-2.2,2.1-3.1
				c0.8-0.9,1.7-1.4,2.8-1.7c1.6-0.4,2.9,0.1,3.8,1.5c0.9,1.4,1,2.7,0.1,4c-0.6,1.7-1.5,3.3-2.7,4.8c-1.2,1.5-2.4,3.1-3.6,4.6
				c0.1,1.6,0.3,3.1,0.8,4.7c0.5,1.6,1.6,2.3,3.2,2.1c2.5-0.3,4.8-1.3,6.8-3c2-1.7,4.4-4,7-6.9c-1.2-2.4-1.6-5.1-0.9-8.1
				c0.6-2.4,1.9-4.9,3.8-7.5c1.9-2.6,4.2-4.2,7-4.6c1-0.2,1.9-0.1,2.9,0.4c1,0.5,1.6,1.1,2.1,1.7c0.3,0.8,0.1,2-0.6,3.6
				c-0.7,1.6-1.6,3.4-2.6,5.3c-1,1.9-2,3.6-3,5.2c-1,1.6-1.7,2.7-2.2,3.2c1.3,0.8,3,1.1,4.9,0.6c2-0.4,3.7-0.9,5.1-1.5
				c3.5-1,6.9-2.5,10.2-4.2c3.3-1.8,6.4-3.8,9.1-5.9c0.6-0.6,1.2-0.8,1.8-0.6c0.6,0.2,1.1,0.5,1.5,1c0.4,0.5,0.6,1,0.7,1.7
				c0.1,0.6-0.2,1.2-0.8,1.8c-1.4,1.3-3,2.4-4.7,3.3c-1.7,0.9-3.4,1.8-5.1,2.7c-3,1.8-6.3,3.4-9.7,4.7c-3.5,1.3-7.1,2-10.7,2.1
				c-1.5,0.2-3.1-0.2-4.7-1.1c-2.2,3.3-4.7,6.3-7.3,9c-2.6,2.6-5.6,4.2-8.9,4.6c-3,0.5-5.2-0.3-6.7-2.4c-1.5-2.1-2.5-4.5-3.1-7.2
				l-3.8,4.2c-2.5,2.7-5.1,5.4-7.7,8.2c-2.6,2.8-5.6,5.1-9,7c-1.1,0.7-2.4,1.2-3.7,1.5c-1.4,0.3-2.6,0.3-3.8,0.1
				c-1.2-0.2-2.2-0.8-3.1-1.8c-0.8-1-1.3-2.4-1.2-4.2c0.2-2.3,0.8-4.5,1.8-6.7c1-2.1,2.1-4.3,3.2-6.3c0.8-1.6,1.7-3.4,2.7-5.3
				c1-1.9,1.9-3.7,2.6-5.5c-1.5,0.9-3.1,1.8-4.7,2.8c-1.6,1-3.1,2-4.3,3c-2.1,1.6-4.1,3.1-6,4.6c-1.9,1.5-3.9,3.1-5.8,4.8
				c-0.8,0.4-1.6,0.9-2.5,1.4c-0.9,0.5-1.8,0.3-2.7-0.7C230.8,58.9,231,57.7,232.2,56.7z"/>
		</g>
	</g>
</g>
</svg>
