<?xml version="1.0" encoding="utf-8"?>
<!-- Generator: Adobe Illustrator 21.1.0, SVG Export Plug-In . SVG Version: 6.00 Build 0)  -->
<svg version="1.1" id="レイヤー_2" xmlns="http://www.w3.org/2000/svg" xmlns:xlink="http://www.w3.org/1999/xlink" x="0px"
	 y="0px" viewBox="0 0 87.4 52.8" style="enable-background:new 0 0 87.4 52.8;" xml:space="preserve">
<polygon points="12.3,3.3 12,3.6 12,14.8 12.3,15.1 13.8,15.1 14.1,14.8 14.1,3.6 13.8,3.3 "/>
<polygon points="2.1,13.3 2.1,3.6 1.8,3.3 0.3,3.3 0,3.6 0,14.8 0.3,15.1 0.7,15.1 1.8,15.1 7.2,15.1 7.6,14.8 7.6,13.6 7.2,13.3 
	"/>
<polygon points="21.5,3.3 20.3,3.3 20,3.3 19.7,3.6 19.7,14.8 20,15.1 21.5,15.1 21.8,14.8 21.8,10 25.9,10 26.2,9.6 26.2,8.5 
	25.9,8.2 21.8,8.2 21.8,5.1 26.9,5.1 27.2,4.8 27.2,3.6 26.9,3.3 "/>
<polygon points="32.4,15.1 33.6,15.1 39.1,15.1 39.5,14.8 39.5,13.6 39.1,13.3 33.9,13.3 33.9,10 38,10 38.3,9.6 38.3,8.5 38,8.2 
	33.9,8.2 33.9,5.1 39,5.1 39.3,4.8 39.3,3.6 39,3.3 33.6,3.3 32.4,3.3 32.1,3.3 31.8,3.6 31.8,14.8 32.1,15.1 "/>
<polygon points="80.3,52.6 80.6,52.3 80.6,49.1 82.1,47.3 85.1,52.3 85.4,52.6 87.1,52.6 87.4,52.3 83.5,45.6 87.1,41.2 86.8,40.8 
	85,40.8 84.7,41.2 80.6,46.2 80.6,41.2 80.3,40.8 78.8,40.8 78.4,41.2 78.4,52.3 78.8,52.6 "/>
<path d="M73.5,44.1c0-2.6-1.8-3.3-3.3-3.3h-3.3h-1.2h-0.3L65,41.2v11.1l0.3,0.3h1.5l0.3-0.3v-4.8h2.4l2.3,4.8l0.3,0.3h1.7l0.3-0.3
	l-2.4-5.2C72.7,46.7,73.5,45.8,73.5,44.1z M67.2,42.6h3c0.9,0,1.2,0.6,1.2,1.5s-0.3,1.5-1.2,1.5h-3V42.6z"/>
<polygon points="44.1,40.8 43.7,41.1 42.2,49.5 42.1,49.5 40.3,41.4 40,41 39.5,41 39,41 38.5,41 38.2,41.4 36.4,49.5 36.3,49.5 
	34.8,41.1 34.4,40.8 32.8,40.8 32.5,41.1 35,52.5 35.3,52.8 35.9,52.8 36.7,52.8 37,52.8 37.3,52.5 39.3,44.1 41.2,52.5 41.5,52.8 
	41.8,52.8 42.6,52.8 43.2,52.8 43.5,52.5 46,41.1 45.7,40.8 "/>
<path d="M55.1,40.8c-3.6,0-6,2.7-6,6c0,3.3,2.4,6,6,6c3.6,0,6-2.7,6-6C61.1,43.5,58.7,40.8,55.1,40.8z M55.1,50.8
	c-2.3,0-3.8-1.9-3.8-4s1.5-4,3.8-4c2.4,0,3.9,1.9,3.9,4S57.6,50.8,55.1,50.8z"/>
<rect x="-5.4" y="24.6" transform="matrix(0.8561 -0.5167 0.5167 0.8561 -6.7179 25.3536)" width="95.1" height="0.3"/>
</svg>
