<svg xmlns="http://www.w3.org/2000/svg" xmlns:xlink="http://www.w3.org/1999/xlink" viewBox="0 0 466.25 99.02"><defs><style>.cls-1{fill:url(#名称未設定グラデーション_53);}.cls-2{fill:url(#名称未設定グラデーション_41);}.cls-3{fill:url(#名称未設定グラデーション_65);}.cls-4{fill:url(#名称未設定グラデーション_65-2);}.cls-5{fill:url(#名称未設定グラデーション_80);}.cls-6{fill:url(#名称未設定グラデーション_18);}.cls-7{fill:#040000;}</style><linearGradient id="名称未設定グラデーション_53" x1="80.59" y1="80.22" x2="80.59" y2="43.93" gradientUnits="userSpaceOnUse"><stop offset="0" stop-color="#7fad2b"/><stop offset="0.58" stop-color="#9db828"/><stop offset="1" stop-color="#b3c644"/></linearGradient><linearGradient id="名称未設定グラデーション_41" x1="93.06" y1="80.22" x2="93.06" y2="43.93" gradientUnits="userSpaceOnUse"><stop offset="0" stop-color="#7fad2b"/><stop offset="0.58" stop-color="#9db828"/><stop offset="1" stop-color="#c7cd40"/></linearGradient><linearGradient id="名称未設定グラデーション_65" x1="57.05" y1="34.3" x2="57.05" gradientUnits="userSpaceOnUse"><stop offset="0" stop-color="#046789"/><stop offset="0.58" stop-color="#2583a0"/><stop offset="1" stop-color="#72b4c2"/></linearGradient><linearGradient id="名称未設定グラデーション_65-2" x1="58.98" y1="34.3" x2="58.98" y2="0" xlink:href="#名称未設定グラデーション_65"/><linearGradient id="名称未設定グラデーション_80" x1="25.5" y1="99.02" x2="25.5" y2="48.02" gradientUnits="userSpaceOnUse"><stop offset="0" stop-color="#d54c16"/><stop offset="0.58" stop-color="#dd6822"/><stop offset="1" stop-color="#e58242"/></linearGradient><linearGradient id="名称未設定グラデーション_18" x1="42.06" y1="99.02" x2="42.06" y2="48.02" gradientUnits="userSpaceOnUse"><stop offset="0" stop-color="#db6a27"/><stop offset="0.58" stop-color="#dd6822"/><stop offset="1" stop-color="#e58242"/></linearGradient></defs><title>logo_main</title><g id="レイヤー_2" data-name="レイヤー 2"><g id="緑"><path class="cls-1" d="M84.41,62.07a8.38,8.38,0,0,1,2.09-5.56c.14-.15-5.79-7.62-5.93-7.8a18.07,18.07,0,0,0-5.89,13.35c0,.38,0,.74.06,1.11.46,0,9.68-.68,9.68-.68S84.41,62.22,84.41,62.07Z"/><path class="cls-2" d="M92.83,43.93A18.06,18.06,0,0,0,82.68,47l0,0,6.11,7.64A8.42,8.42,0,1,1,84.92,65c-.06-.15-9.46,1.08-9.78,1.12A18.14,18.14,0,1,0,92.83,43.93Z"/></g><g id="青"><path class="cls-3" d="M49.61,17.15a7.44,7.44,0,1,1,14.88,0,8.11,8.11,0,0,1-1.7,4.68L69.57,29a17,17,0,0,0,4.77-11.81A17.29,17.29,0,1,0,47.43,31.4l4.36-9A7.41,7.41,0,0,1,49.61,17.15Z"/><path class="cls-4" d="M67,31.4,60.51,24a10.5,10.5,0,0,1-3.46.58,7.45,7.45,0,0,1-1.79-.22L51,33.2a17.34,17.34,0,0,0,6,1.1A18.25,18.25,0,0,0,67,31.4Z"/></g><g id="オレンジ"><path class="cls-5" d="M50.88,71,40,72.25q.06.69.07,1.39a14.73,14.73,0,1,1-10-14l.79.29s5.7-9.31,5.79-9.4l-.73-.35A25.5,25.5,0,1,0,51,73.52C51,72.68,51,71.85,50.88,71Z"/><path class="cls-6" d="M39.38,52.13l-5.56,9.48a14.78,14.78,0,0,1,5.38,7.11L50.3,67.6A25.53,25.53,0,0,0,39.38,52.13Z"/></g><g id="T"><polyline class="cls-7" points="427.5 45.68 427.5 48.43 444.25 48.43 444.25 76.81 449.5 76.81 449.5 48.68 466.25 48.68 466.25 45.69"/></g><g id="E"><polygon class="cls-7" points="385.71 45.69 385.71 76.81 419.05 76.81 419.05 73.75 397.11 73.75 389.5 73.75 389.5 62.86 417.63 62.86 417.63 59.46 389.61 59.46 389.61 48.97 419.05 48.97 419.05 45.69 385.71 45.69"/></g><g id="N"><polygon class="cls-7" points="328.75 45.68 328.75 76.52 333.5 76.52 333.5 49.55 365.17 76.8 371.72 76.8 371.72 45.68 367.32 45.68 367.32 72.97 335.65 45.68 328.75 45.68"/></g><g id="E-2" data-name="E"><polygon class="cls-7" points="283.67 45.68 283.67 76.8 317 76.8 317 73.75 295.06 73.75 287.45 73.75 287.45 62.85 315.58 62.85 315.58 59.45 287.57 59.45 287.57 48.97 317 48.97 317 45.68 283.67 45.68"/></g><g id="L"><polygon class="cls-7" points="242.5 45.68 242.5 76.8 273.83 76.8 273.83 73.18 246.83 73.18 246.83 45.68 242.5 45.68"/></g><g id="B"><path class="cls-7" d="M190.1,45.68h29.42l3.15,0a5.93,5.93,0,0,1,4.7,2.73,8.89,8.89,0,0,1,.67,3.91c.06,2,.33,4.36-1,6-.67.81-1.83,1.23-2.39,2.11.54.49,1.78.59,2.48.86a3.13,3.13,0,0,1,2.07,2.11,9,9,0,0,1,.23,2,31.54,31.54,0,0,1,0,4.76c-.32,2.95-2.23,6-5.47,6.13-.7,0-1.4,0-2.1,0l-8.39,0-10.71.05-9.1,0-3.58,0a.44.44,0,0,1-.44-.44v-30A.44.44,0,0,1,190.1,45.68Zm4.56,17V73.8h25.26a8.35,8.35,0,0,0,3.07-.9,3.44,3.44,0,0,0,1.57-3,16.83,16.83,0,0,0,.08-3,6.48,6.48,0,0,0-.39-2.75,2.67,2.67,0,0,0-1.38-1.12c-1.77-.7-3.74-.44-5.59-.44H194.65Zm0-14.16V59.37h20.13c.86,0,1.73,0,2.59,0,1.37,0,3,.25,4.25-.35a3.9,3.9,0,0,0,1.92-2.35,8.61,8.61,0,0,0,.3-3.09q-.05-1.07-.2-2.13a2.77,2.77,0,0,0-.19-.75A2.55,2.55,0,0,0,223,50a4.2,4.2,0,0,0-3-1.51H194.65Z"/></g><g id="A"><path class="cls-7" d="M154,45.68h5.2l20.33,30.83h-4.83L170,69.88h-27l-4.23,6.63H133.9ZM144.77,67h23.57L157.55,50.42h-1.77Z"/></g></g></svg>