<svg xmlns="http://www.w3.org/2000/svg" width="196" height="696"><path d="M194.2 265.4l-8.6.6c6.7 5.3 10 12.5 10 21.4 0 7.9-2.3 13.8-7 17.6s-11.6 5.8-20.8 5.9h-48.1V291h47.6c4.2 0 7.3-.9 9.2-2.8 1.9-1.8 2.9-4.9 2.9-9.2.2-5.2-2.6-10.1-7.2-12.6h-52.5v-19.9h74.5v18.9zm-74.4 95.1c2.1-1 4.4-1.7 6.7-2-5.4-4.8-8.1-11.1-8.1-18.8 0-7.3 2.1-13.3 6.3-18.1 4-4.7 9.8-7.3 16-7.2 7.9 0 14 2.9 18.2 8.8 4.2 5.9 6.4 14.3 6.4 25.4v9.2h4.3c3 .2 5.9-.8 8.3-2.7 2.1-1.8 3.1-4.6 3.1-8.4 0-3.4-.8-6-2.4-7.9-1.6-1.9-4.1-3-6.6-2.9V316c4.3 0 8.5 1.4 12 4 3.9 2.9 6.8 6.8 8.6 11.3 2.2 5.2 3.2 10.8 3.1 16.4 0 9.2-2.3 16.5-6.9 21.9-4.6 5.4-11.1 8.1-19.4 8.1H137c-7.1 0-12.4 1-16 3h-1.2v-20.2zm13.8-16.5c0 2.8.6 5.6 2 8.1 1.2 2.3 3 4.2 5.3 5.5h12.8v-7.4c0-10-3.4-15.3-10.3-15.9l-1.2-.1c-2.3-.1-4.6.9-6.1 2.6-1.8 2-2.7 4.6-2.5 7.2zm60.6 58.5l-8.6.6c6.7 5.3 10 12.5 10 21.4 0 7.9-2.3 13.8-7 17.6s-11.6 5.8-20.8 5.9h-48.1v-19.9h47.6c4.2 0 7.3-.9 9.2-2.8 1.9-1.8 2.9-4.9 2.9-9.2.2-5.2-2.6-10.1-7.2-12.6h-52.5v-19.9h74.5v18.9zm-74.4 95c2.1-1 4.4-1.7 6.7-2-5.4-4.8-8.1-11.1-8.1-18.8 0-7.3 2.1-13.3 6.3-18.1 4-4.7 9.8-7.3 16-7.2 7.9 0 14 2.9 18.2 8.8 4.2 5.9 6.4 14.3 6.4 25.4v9.2h4.3c3 .2 5.9-.8 8.3-2.7 2.1-1.8 3.1-4.6 3.1-8.4 0-3.4-.8-6-2.4-7.9-1.6-1.9-4.1-3-6.6-2.9V453c4.3 0 8.5 1.4 12 4 3.9 2.9 6.8 6.8 8.6 11.3 2.2 5.2 3.2 10.8 3.1 16.4 0 9.2-2.3 16.5-6.9 21.9-4.6 5.4-11.1 8.1-19.4 8.1H137c-7.1 0-12.4 1-16 3h-1.2v-20.2zm13.8-16.4c0 2.8.6 5.6 2 8.1 1.2 2.3 3 4.2 5.3 5.5h12.8v-7.4c0-10-3.4-15.3-10.3-15.9l-1.2-.1c-2.3-.1-4.6.9-6.1 2.6-1.8 2-2.7 4.6-2.5 7.2zm-6.3 84.7c-6-4.9-8.9-11.7-8.9-20.4 0-8 2.3-14.1 6.9-18.3 4.6-4.2 11.3-6.3 20.2-6.4h48.8v19.9h-48.1c-7.8 0-11.6 3.5-11.6 10.6 0 6.7 2.3 11.4 7 13.9h52.7v20h-74.5v-18.7l7.5-.6zm48.3 67.4c.3-2.4.5-4.8.6-7.2 0-7.5-2.5-12.5-7.6-14.8h-48.7v-19.9h74.5v18.8l-8.9.6c6.8 4 10.3 9.5 10.3 16.6 0 2.1-.3 4.2-.9 6.2l-19.3-.3zm-55.8 42c2.1-1 4.4-1.7 6.7-2-5.4-4.8-8.1-11.1-8.1-18.8 0-7.3 2.1-13.3 6.3-18.1 4-4.7 9.8-7.3 16-7.2 7.9 0 14 2.9 18.2 8.8 4.2 5.9 6.4 14.3 6.4 25.4v9.2h4.3c3 .2 5.9-.8 8.3-2.7 2.1-1.8 3.1-4.6 3.1-8.4 0-3.4-.8-6-2.4-7.9-1.6-1.9-4.1-3-6.6-2.9v-19.9c4.3 0 8.5 1.4 12 4 3.9 2.9 6.8 6.8 8.6 11.3 2.2 5.2 3.2 10.8 3.1 16.4 0 9.2-2.3 16.5-6.9 21.9-4.6 5.4-11.1 8.1-19.5 8.1H137c-7.1 0-12.4 1-16 3h-1.2v-20.2zm13.8-16.5c0 2.8.6 5.6 2 8.1 1.2 2.3 3 4.2 5.3 5.5h12.8v-7.4c0-10-3.4-15.3-10.3-15.9l-1.2-.1c-2.3-.1-4.6.9-6.1 2.6-1.8 2-2.7 4.6-2.5 7.2zM16.4 34.8c-.1 3.3.9 6.4 3 9 2 2.3 5 3.6 8.1 3.6V66c-4.9 0-9.7-1.4-13.9-4.1-4.2-2.8-7.6-6.6-9.7-11.2C1.5 45.8.4 40.5.4 35.1c0-10.6 3.4-19 10.2-25.2S26.7.7 38.7.7H40c11.5 0 20.6 3.1 27.5 9.2C74.2 16 77.6 24.4 77.6 35c0 9.3-2.7 16.8-8 22.4S57.3 65.9 48.5 66V47.3c3.5.1 6.8-1.2 9.4-3.6 2.4-2.4 3.8-5.7 3.6-9.1 0-4.6-1.7-8.1-5.1-10.5-3.4-2.4-8.8-3.5-16.4-3.5h-2c-7.7 0-13.2 1.2-16.5 3.5s-5.1 5.9-5.1 10.7zm23.3 30.7c6.8-.1 13.6 1.3 19.8 4.3 5.6 2.7 10.3 7 13.4 12.3 3.2 5.7 4.9 12.1 4.8 18.6 0 10.1-3.1 18.3-9.2 24.6s-14.5 9.9-25.1 10.6l-5.1.1c-11.4 0-20.6-3.2-27.5-9.6S.4 111.6.4 100.8c0-10.7 3.4-19.3 10.3-25.7 6.9-6.4 16.2-9.6 28.1-9.6h.9zm-1.5 19.9c-7.1 0-12.5 1.3-16.2 4s-5.6 6.5-5.6 11.4c-.2 4.5 1.9 8.7 5.5 11.3 3.7 2.7 9.6 4.1 17.7 4.1 6.9 0 12.3-1.4 16.1-4.1 3.7-2.6 5.9-6.9 5.7-11.4.2-4.5-2-8.8-5.7-11.3-3.7-2.7-9.5-4-17.5-4zm38 72.5l-8.6.6c6.7 5.3 10 12.5 10 21.4 0 7.9-2.3 13.8-7 17.6s-11.6 5.8-20.8 5.9h-48v-19.9h47.6c4.2 0 7.3-.9 9.2-2.8s2.9-4.9 2.9-9.2c.2-5.2-2.6-10.1-7.2-12.6H1.8V139h74.5l-.1 18.9zm-53.9 92.3c2.4 0 4.7-1.4 5.7-3.6 1.4-2.4 2.7-6.3 3.8-11.6 3.7-17.7 11.2-26.6 22.6-26.6 6.6 0 12.1 2.7 16.6 8.2 4.4 5.5 6.6 12.7 6.6 21.5 0 9.5-2.2 17-6.7 22.7-4.1 5.5-10.5 8.6-17.4 8.5v-19.9c2.6.1 5.2-.9 7.1-2.8 1.9-1.8 2.8-4.7 2.8-8.6 0-3.4-.8-5.9-2.3-7.8-1.4-1.8-3.5-2.8-5.8-2.8-2.2 0-4.3 1.2-5.3 3.1-1.4 2.1-2.5 5.6-3.5 10.6-.8 4.3-1.9 8.4-3.3 12.5-3.9 10.5-10.5 15.8-20 15.8-6.8 0-12.3-2.9-16.5-8.7-4.2-5.8-6.3-13.4-6.3-22.6-.1-5.7 1-11.4 3.3-16.6 2-4.5 5.1-8.5 9.2-11.4 3.6-2.7 8-4.1 12.6-4.1v18.9c-3.2 0-6.2 1.4-8.1 3.9-1.9 2.4-2.8 5.7-2.8 9.8 0 3.8.7 6.7 2.2 8.6 1.1 1.9 3.3 3 5.5 3zm72.3 47.2H76.2v12.7H61.7v-12.7H24.5c-2.8 0-4.7.5-5.9 1.6-1.2 1.1-1.8 3.1-1.8 6.1 0 2 .1 3.9.5 5.9H2.2C1 307.1.4 303 .4 299c0-14 7-21.1 21.1-21.3h40.1v-10.9h14.6v10.9h18.3l.1 19.7zm-37 56.9c.3-2.4.5-4.8.6-7.2 0-7.5-2.5-12.5-7.6-14.8H1.8v-19.9h74.5v18.8l-8.9.6c6.8 4 10.3 9.5 10.3 16.6 0 2.1-.3 4.2-.9 6.2l-19.2-.3zM9.3 399.8c-6-4.9-8.9-11.7-8.9-20.4 0-8 2.3-14.1 6.9-18.3s11.3-6.3 20.2-6.4h48.8v19.9H28.1c-7.8 0-11.6 3.5-11.6 10.6 0 6.7 2.3 11.4 7 13.9h52.7v20H1.8v-18.7l7.5-.6zm7.1 56.5c-.1 3.3.9 6.4 3 8.9 2 2.3 5 3.6 8.1 3.6v18.7c-4.9 0-9.7-1.4-13.9-4.1-4.2-2.7-7.6-6.6-9.8-11.1-2.4-4.9-3.5-10.2-3.5-15.6 0-10.6 3.4-19 10.2-25.2 6.8-6.2 16.1-9.2 28.1-9.2h1.3c11.5 0 20.6 3.1 27.5 9.2s10.3 14.5 10.3 25.1c0 9.3-2.7 16.8-8 22.4-5.3 5.6-12.4 8.5-21.2 8.6v-18.7c3.5.1 6.8-1.2 9.4-3.6 2.4-2.4 3.8-5.7 3.6-9.1 0-4.6-1.7-8.1-5.1-10.5-3.4-2.4-8.8-3.5-16.4-3.5h-2c-7.7 0-13.2 1.2-16.5 3.5-3.4 2.3-5.1 5.8-5.1 10.6zm78.2 57.6H76.2v12.7H61.7v-12.7H24.5c-2.8 0-4.7.5-5.9 1.6-1.2 1.1-1.8 3.1-1.8 6.1 0 2 .1 3.9.5 5.9H2.2c-1.2-3.9-1.8-8-1.8-12 0-14 7-21.1 21.1-21.3h40.1v-10.9h14.6V494h18.3l.1 19.9zM1.8 550v-20h74.5v20H1.8zm93.7-21.1c2.8-.1 5.4 1 7.4 3 2 2.2 3.1 5.2 2.9 8.2.2 3-.9 5.9-2.9 8.1-1.9 2-4.6 3.1-7.4 3-2.8.1-5.5-1-7.4-3.1-2-2.2-3-5.1-2.9-8.1-.1-3 .9-5.9 2.9-8.1 1.9-2 4.6-3.1 7.4-3zm-55.8 25.7c6.8-.1 13.6 1.3 19.8 4.3 5.6 2.7 10.3 7 13.4 12.3 3.2 5.7 4.9 12.1 4.8 18.6 0 10.1-3.1 18.3-9.2 24.6-6.2 6.4-14.5 9.9-25.1 10.6l-5.1.1c-11.4 0-20.6-3.2-27.5-9.6S.4 600.6.4 589.9c0-10.7 3.4-19.3 10.3-25.7 6.9-6.4 16.2-9.6 28.1-9.6h.9zm-1.5 19.9c-7.1 0-12.5 1.3-16.2 4s-5.6 6.5-5.6 11.4c-.2 4.5 1.9 8.7 5.5 11.3 3.7 2.7 9.6 4.1 17.7 4.1 6.9 0 12.3-1.4 16.1-4.1 3.7-2.6 5.9-6.9 5.7-11.4.2-4.5-2-8.8-5.7-11.3-3.7-2.7-9.5-4.1-17.5-4zm38 72.5l-8.6.6c6.7 5.3 10 12.5 10 21.4 0 7.9-2.3 13.8-7 17.6s-11.6 5.8-20.8 5.9h-48v-19.9h47.6c4.2 0 7.3-.9 9.2-2.8s2.9-4.9 2.9-9.2c.2-5.2-2.6-10.1-7.2-12.6H1.8v-19.9h74.5l-.1 18.9z" fill="#f5f5f5"/></svg>